<mxfile host="app.diagrams.net" modified="2022-09-22T01:14:31.010Z" agent="5.0 (Windows NT 10.0; Win64; x64) AppleWebKit/537.36 (KHTML, like Gecko) Chrome/105.0.0.0 Safari/537.36" etag="14hTUFPMupbqPEOTytTK" version="20.3.3" type="github">
  <diagram id="prtHgNgQTEPvFCAcTncT" name="Page-1">
    <mxGraphModel dx="2072" dy="469" grid="1" gridSize="10" guides="1" tooltips="1" connect="1" arrows="1" fold="1" page="1" pageScale="1" pageWidth="1169" pageHeight="827" math="0" shadow="0">
      <root>
        <mxCell id="0" />
        <mxCell id="1" parent="0" />
        <mxCell id="YFKE30H4oAOHtCyzEYSX-3" value="" style="shape=table;html=1;whiteSpace=wrap;startSize=0;container=1;collapsible=0;childLayout=tableLayout;" vertex="1" parent="1">
          <mxGeometry x="40" y="530" width="900" height="40" as="geometry" />
        </mxCell>
        <mxCell id="YFKE30H4oAOHtCyzEYSX-4" value="" style="shape=tableRow;horizontal=0;startSize=0;swimlaneHead=0;swimlaneBody=0;top=0;left=0;bottom=0;right=0;collapsible=0;dropTarget=0;fillColor=none;points=[[0,0.5],[1,0.5]];portConstraint=eastwest;" vertex="1" parent="YFKE30H4oAOHtCyzEYSX-3">
          <mxGeometry width="900" height="40" as="geometry" />
        </mxCell>
        <mxCell id="YFKE30H4oAOHtCyzEYSX-5" value="Sname" style="shape=partialRectangle;html=1;whiteSpace=wrap;connectable=0;fillColor=none;top=0;left=0;bottom=0;right=0;overflow=hidden;" vertex="1" parent="YFKE30H4oAOHtCyzEYSX-4">
          <mxGeometry width="90" height="40" as="geometry">
            <mxRectangle width="90" height="40" as="alternateBounds" />
          </mxGeometry>
        </mxCell>
        <mxCell id="YFKE30H4oAOHtCyzEYSX-6" value="&lt;u&gt;Snum&lt;/u&gt;" style="shape=partialRectangle;html=1;whiteSpace=wrap;connectable=0;fillColor=none;top=0;left=0;bottom=0;right=0;overflow=hidden;" vertex="1" parent="YFKE30H4oAOHtCyzEYSX-4">
          <mxGeometry x="90" width="90" height="40" as="geometry">
            <mxRectangle width="90" height="40" as="alternateBounds" />
          </mxGeometry>
        </mxCell>
        <mxCell id="YFKE30H4oAOHtCyzEYSX-7" value="&lt;u&gt;Ssn&lt;/u&gt;" style="shape=partialRectangle;html=1;whiteSpace=wrap;connectable=0;fillColor=none;top=0;left=0;bottom=0;right=0;overflow=hidden;" vertex="1" parent="YFKE30H4oAOHtCyzEYSX-4">
          <mxGeometry x="180" width="90" height="40" as="geometry">
            <mxRectangle width="90" height="40" as="alternateBounds" />
          </mxGeometry>
        </mxCell>
        <mxCell id="YFKE30H4oAOHtCyzEYSX-12" value="Bdate" style="shape=partialRectangle;html=1;whiteSpace=wrap;connectable=0;fillColor=none;top=0;left=0;bottom=0;right=0;overflow=hidden;" vertex="1" parent="YFKE30H4oAOHtCyzEYSX-4">
          <mxGeometry x="270" width="90" height="40" as="geometry">
            <mxRectangle width="90" height="40" as="alternateBounds" />
          </mxGeometry>
        </mxCell>
        <mxCell id="YFKE30H4oAOHtCyzEYSX-13" value="Sex" style="shape=partialRectangle;html=1;whiteSpace=wrap;connectable=0;fillColor=none;top=0;left=0;bottom=0;right=0;overflow=hidden;" vertex="1" parent="YFKE30H4oAOHtCyzEYSX-4">
          <mxGeometry x="360" width="90" height="40" as="geometry">
            <mxRectangle width="90" height="40" as="alternateBounds" />
          </mxGeometry>
        </mxCell>
        <mxCell id="YFKE30H4oAOHtCyzEYSX-14" value="Class" style="shape=partialRectangle;html=1;whiteSpace=wrap;connectable=0;fillColor=none;top=0;left=0;bottom=0;right=0;overflow=hidden;" vertex="1" parent="YFKE30H4oAOHtCyzEYSX-4">
          <mxGeometry x="450" width="90" height="40" as="geometry">
            <mxRectangle width="90" height="40" as="alternateBounds" />
          </mxGeometry>
        </mxCell>
        <mxCell id="YFKE30H4oAOHtCyzEYSX-25" value="Major_code" style="shape=partialRectangle;html=1;whiteSpace=wrap;connectable=0;fillColor=none;top=0;left=0;bottom=0;right=0;overflow=hidden;" vertex="1" parent="YFKE30H4oAOHtCyzEYSX-4">
          <mxGeometry x="540" width="90" height="40" as="geometry">
            <mxRectangle width="90" height="40" as="alternateBounds" />
          </mxGeometry>
        </mxCell>
        <mxCell id="YFKE30H4oAOHtCyzEYSX-24" value="Minor_Code" style="shape=partialRectangle;html=1;whiteSpace=wrap;connectable=0;fillColor=none;top=0;left=0;bottom=0;right=0;overflow=hidden;" vertex="1" parent="YFKE30H4oAOHtCyzEYSX-4">
          <mxGeometry x="630" width="90" height="40" as="geometry">
            <mxRectangle width="90" height="40" as="alternateBounds" />
          </mxGeometry>
        </mxCell>
        <mxCell id="YFKE30H4oAOHtCyzEYSX-23" value="Prog" style="shape=partialRectangle;html=1;whiteSpace=wrap;connectable=0;fillColor=none;top=0;left=0;bottom=0;right=0;overflow=hidden;" vertex="1" parent="YFKE30H4oAOHtCyzEYSX-4">
          <mxGeometry x="720" width="90" height="40" as="geometry">
            <mxRectangle width="90" height="40" as="alternateBounds" />
          </mxGeometry>
        </mxCell>
        <mxCell id="YFKE30H4oAOHtCyzEYSX-153" value="&lt;u&gt;Departmt&lt;/u&gt;" style="shape=partialRectangle;html=1;whiteSpace=wrap;connectable=0;fillColor=none;top=0;left=0;bottom=0;right=0;overflow=hidden;" vertex="1" parent="YFKE30H4oAOHtCyzEYSX-4">
          <mxGeometry x="810" width="90" height="40" as="geometry">
            <mxRectangle width="90" height="40" as="alternateBounds" />
          </mxGeometry>
        </mxCell>
        <mxCell id="YFKE30H4oAOHtCyzEYSX-28" value="&lt;h1&gt;Student&lt;/h1&gt;" style="text;html=1;strokeColor=none;fillColor=none;spacing=5;spacingTop=-20;whiteSpace=wrap;overflow=hidden;rounded=0;" vertex="1" parent="1">
          <mxGeometry x="-130" y="530" width="100" height="40" as="geometry" />
        </mxCell>
        <mxCell id="YFKE30H4oAOHtCyzEYSX-29" value="&lt;h1&gt;Department&lt;/h1&gt;&lt;div&gt;&lt;br&gt;&lt;/div&gt;" style="text;html=1;strokeColor=none;fillColor=none;spacing=5;spacingTop=-20;whiteSpace=wrap;overflow=hidden;rounded=0;" vertex="1" parent="1">
          <mxGeometry x="-180" y="640" width="140" height="40" as="geometry" />
        </mxCell>
        <mxCell id="YFKE30H4oAOHtCyzEYSX-62" value="" style="shape=table;html=1;whiteSpace=wrap;startSize=0;container=1;collapsible=0;childLayout=tableLayout;" vertex="1" parent="1">
          <mxGeometry x="40" y="640" width="450" height="40" as="geometry" />
        </mxCell>
        <mxCell id="YFKE30H4oAOHtCyzEYSX-63" value="" style="shape=tableRow;horizontal=0;startSize=0;swimlaneHead=0;swimlaneBody=0;top=0;left=0;bottom=0;right=0;collapsible=0;dropTarget=0;fillColor=none;points=[[0,0.5],[1,0.5]];portConstraint=eastwest;" vertex="1" parent="YFKE30H4oAOHtCyzEYSX-62">
          <mxGeometry width="450" height="40" as="geometry" />
        </mxCell>
        <mxCell id="YFKE30H4oAOHtCyzEYSX-64" value="&lt;u&gt;Dname&lt;/u&gt;" style="shape=partialRectangle;html=1;whiteSpace=wrap;connectable=0;fillColor=none;top=0;left=0;bottom=0;right=0;overflow=hidden;" vertex="1" parent="YFKE30H4oAOHtCyzEYSX-63">
          <mxGeometry width="90" height="40" as="geometry">
            <mxRectangle width="90" height="40" as="alternateBounds" />
          </mxGeometry>
        </mxCell>
        <mxCell id="YFKE30H4oAOHtCyzEYSX-65" value="&lt;u&gt;Dcode&lt;/u&gt;" style="shape=partialRectangle;html=1;whiteSpace=wrap;connectable=0;fillColor=none;top=0;left=0;bottom=0;right=0;overflow=hidden;" vertex="1" parent="YFKE30H4oAOHtCyzEYSX-63">
          <mxGeometry x="90" width="90" height="40" as="geometry">
            <mxRectangle width="90" height="40" as="alternateBounds" />
          </mxGeometry>
        </mxCell>
        <mxCell id="YFKE30H4oAOHtCyzEYSX-66" value="Doffice" style="shape=partialRectangle;html=1;whiteSpace=wrap;connectable=0;fillColor=none;top=0;left=0;bottom=0;right=0;overflow=hidden;" vertex="1" parent="YFKE30H4oAOHtCyzEYSX-63">
          <mxGeometry x="180" width="90" height="40" as="geometry">
            <mxRectangle width="90" height="40" as="alternateBounds" />
          </mxGeometry>
        </mxCell>
        <mxCell id="YFKE30H4oAOHtCyzEYSX-78" value="Dphone" style="shape=partialRectangle;html=1;whiteSpace=wrap;connectable=0;fillColor=none;top=0;left=0;bottom=0;right=0;overflow=hidden;" vertex="1" parent="YFKE30H4oAOHtCyzEYSX-63">
          <mxGeometry x="270" width="90" height="40" as="geometry">
            <mxRectangle width="90" height="40" as="alternateBounds" />
          </mxGeometry>
        </mxCell>
        <mxCell id="YFKE30H4oAOHtCyzEYSX-77" value="Dcollege" style="shape=partialRectangle;html=1;whiteSpace=wrap;connectable=0;fillColor=none;top=0;left=0;bottom=0;right=0;overflow=hidden;" vertex="1" parent="YFKE30H4oAOHtCyzEYSX-63">
          <mxGeometry x="360" width="90" height="40" as="geometry">
            <mxRectangle width="90" height="40" as="alternateBounds" />
          </mxGeometry>
        </mxCell>
        <mxCell id="YFKE30H4oAOHtCyzEYSX-79" value="&lt;h1&gt;Course&lt;/h1&gt;" style="text;html=1;strokeColor=none;fillColor=none;spacing=5;spacingTop=-20;whiteSpace=wrap;overflow=hidden;rounded=0;" vertex="1" parent="1">
          <mxGeometry x="-130" y="760" width="140" height="40" as="geometry" />
        </mxCell>
        <mxCell id="YFKE30H4oAOHtCyzEYSX-80" value="" style="shape=table;html=1;whiteSpace=wrap;startSize=0;container=1;collapsible=0;childLayout=tableLayout;" vertex="1" parent="1">
          <mxGeometry x="40" y="760" width="450" height="40" as="geometry" />
        </mxCell>
        <mxCell id="YFKE30H4oAOHtCyzEYSX-81" value="" style="shape=tableRow;horizontal=0;startSize=0;swimlaneHead=0;swimlaneBody=0;top=0;left=0;bottom=0;right=0;collapsible=0;dropTarget=0;fillColor=none;points=[[0,0.5],[1,0.5]];portConstraint=eastwest;" vertex="1" parent="YFKE30H4oAOHtCyzEYSX-80">
          <mxGeometry width="450" height="40" as="geometry" />
        </mxCell>
        <mxCell id="YFKE30H4oAOHtCyzEYSX-82" value="Cname" style="shape=partialRectangle;html=1;whiteSpace=wrap;connectable=0;fillColor=none;top=0;left=0;bottom=0;right=0;overflow=hidden;" vertex="1" parent="YFKE30H4oAOHtCyzEYSX-81">
          <mxGeometry width="90" height="40" as="geometry">
            <mxRectangle width="90" height="40" as="alternateBounds" />
          </mxGeometry>
        </mxCell>
        <mxCell id="YFKE30H4oAOHtCyzEYSX-83" value="Cdesc" style="shape=partialRectangle;html=1;whiteSpace=wrap;connectable=0;fillColor=none;top=0;left=0;bottom=0;right=0;overflow=hidden;" vertex="1" parent="YFKE30H4oAOHtCyzEYSX-81">
          <mxGeometry x="90" width="90" height="40" as="geometry">
            <mxRectangle width="90" height="40" as="alternateBounds" />
          </mxGeometry>
        </mxCell>
        <mxCell id="YFKE30H4oAOHtCyzEYSX-84" value="&lt;u&gt;Cnum&lt;/u&gt;" style="shape=partialRectangle;html=1;whiteSpace=wrap;connectable=0;fillColor=none;top=0;left=0;bottom=0;right=0;overflow=hidden;" vertex="1" parent="YFKE30H4oAOHtCyzEYSX-81">
          <mxGeometry x="180" width="90" height="40" as="geometry">
            <mxRectangle width="90" height="40" as="alternateBounds" />
          </mxGeometry>
        </mxCell>
        <mxCell id="YFKE30H4oAOHtCyzEYSX-85" value="Cdept" style="shape=partialRectangle;html=1;whiteSpace=wrap;connectable=0;fillColor=none;top=0;left=0;bottom=0;right=0;overflow=hidden;" vertex="1" parent="YFKE30H4oAOHtCyzEYSX-81">
          <mxGeometry x="270" width="90" height="40" as="geometry">
            <mxRectangle width="90" height="40" as="alternateBounds" />
          </mxGeometry>
        </mxCell>
        <mxCell id="YFKE30H4oAOHtCyzEYSX-150" value="&lt;u&gt;Departmt&lt;/u&gt;" style="shape=partialRectangle;html=1;whiteSpace=wrap;connectable=0;fillColor=none;top=0;left=0;bottom=0;right=0;overflow=hidden;" vertex="1" parent="YFKE30H4oAOHtCyzEYSX-81">
          <mxGeometry x="360" width="90" height="40" as="geometry">
            <mxRectangle width="90" height="40" as="alternateBounds" />
          </mxGeometry>
        </mxCell>
        <mxCell id="YFKE30H4oAOHtCyzEYSX-87" value="&lt;h1&gt;Section&lt;/h1&gt;" style="text;html=1;strokeColor=none;fillColor=none;spacing=5;spacingTop=-20;whiteSpace=wrap;overflow=hidden;rounded=0;" vertex="1" parent="1">
          <mxGeometry x="-130" y="880" width="140" height="40" as="geometry" />
        </mxCell>
        <mxCell id="YFKE30H4oAOHtCyzEYSX-129" style="edgeStyle=orthogonalEdgeStyle;rounded=0;orthogonalLoop=1;jettySize=auto;html=1;entryX=0.482;entryY=1.046;entryDx=0;entryDy=0;entryPerimeter=0;" edge="1" parent="1" source="YFKE30H4oAOHtCyzEYSX-88" target="YFKE30H4oAOHtCyzEYSX-81">
          <mxGeometry relative="1" as="geometry">
            <Array as="points">
              <mxPoint x="610" y="900" />
              <mxPoint x="610" y="840" />
              <mxPoint x="257" y="840" />
            </Array>
          </mxGeometry>
        </mxCell>
        <mxCell id="YFKE30H4oAOHtCyzEYSX-88" value="" style="shape=table;html=1;whiteSpace=wrap;startSize=0;container=1;collapsible=0;childLayout=tableLayout;" vertex="1" parent="1">
          <mxGeometry x="40" y="880" width="540" height="40" as="geometry" />
        </mxCell>
        <mxCell id="YFKE30H4oAOHtCyzEYSX-89" value="" style="shape=tableRow;horizontal=0;startSize=0;swimlaneHead=0;swimlaneBody=0;top=0;left=0;bottom=0;right=0;collapsible=0;dropTarget=0;fillColor=none;points=[[0,0.5],[1,0.5]];portConstraint=eastwest;" vertex="1" parent="YFKE30H4oAOHtCyzEYSX-88">
          <mxGeometry width="540" height="40" as="geometry" />
        </mxCell>
        <mxCell id="YFKE30H4oAOHtCyzEYSX-90" value="Lname" style="shape=partialRectangle;html=1;whiteSpace=wrap;connectable=0;fillColor=none;top=0;left=0;bottom=0;right=0;overflow=hidden;" vertex="1" parent="YFKE30H4oAOHtCyzEYSX-89">
          <mxGeometry width="90" height="40" as="geometry">
            <mxRectangle width="90" height="40" as="alternateBounds" />
          </mxGeometry>
        </mxCell>
        <mxCell id="YFKE30H4oAOHtCyzEYSX-91" value="Semester" style="shape=partialRectangle;html=1;whiteSpace=wrap;connectable=0;fillColor=none;top=0;left=0;bottom=0;right=0;overflow=hidden;" vertex="1" parent="YFKE30H4oAOHtCyzEYSX-89">
          <mxGeometry x="90" width="90" height="40" as="geometry">
            <mxRectangle width="90" height="40" as="alternateBounds" />
          </mxGeometry>
        </mxCell>
        <mxCell id="YFKE30H4oAOHtCyzEYSX-92" value="Year" style="shape=partialRectangle;html=1;whiteSpace=wrap;connectable=0;fillColor=none;top=0;left=0;bottom=0;right=0;overflow=hidden;" vertex="1" parent="YFKE30H4oAOHtCyzEYSX-89">
          <mxGeometry x="180" width="90" height="40" as="geometry">
            <mxRectangle width="90" height="40" as="alternateBounds" />
          </mxGeometry>
        </mxCell>
        <mxCell id="YFKE30H4oAOHtCyzEYSX-93" value="&lt;u&gt;Sec_course&lt;/u&gt;" style="shape=partialRectangle;html=1;whiteSpace=wrap;connectable=0;fillColor=none;top=0;left=0;bottom=0;right=0;overflow=hidden;" vertex="1" parent="YFKE30H4oAOHtCyzEYSX-89">
          <mxGeometry x="270" width="90" height="40" as="geometry">
            <mxRectangle width="90" height="40" as="alternateBounds" />
          </mxGeometry>
        </mxCell>
        <mxCell id="YFKE30H4oAOHtCyzEYSX-94" value="&lt;u&gt;Sec_num&lt;/u&gt;" style="shape=partialRectangle;html=1;whiteSpace=wrap;connectable=0;fillColor=none;top=0;left=0;bottom=0;right=0;overflow=hidden;" vertex="1" parent="YFKE30H4oAOHtCyzEYSX-89">
          <mxGeometry x="360" width="90" height="40" as="geometry">
            <mxRectangle width="90" height="40" as="alternateBounds" />
          </mxGeometry>
        </mxCell>
        <mxCell id="YFKE30H4oAOHtCyzEYSX-128" value="&lt;u&gt;C_num&lt;/u&gt;" style="shape=partialRectangle;html=1;whiteSpace=wrap;connectable=0;fillColor=none;top=0;left=0;bottom=0;right=0;overflow=hidden;" vertex="1" parent="YFKE30H4oAOHtCyzEYSX-89">
          <mxGeometry x="450" width="90" height="40" as="geometry">
            <mxRectangle width="90" height="40" as="alternateBounds" />
          </mxGeometry>
        </mxCell>
        <mxCell id="YFKE30H4oAOHtCyzEYSX-95" value="&lt;h1&gt;Grade&lt;/h1&gt;" style="text;html=1;strokeColor=none;fillColor=none;spacing=5;spacingTop=-20;whiteSpace=wrap;overflow=hidden;rounded=0;" vertex="1" parent="1">
          <mxGeometry x="-110" y="1000" width="140" height="40" as="geometry" />
        </mxCell>
        <mxCell id="YFKE30H4oAOHtCyzEYSX-108" value="" style="shape=table;html=1;whiteSpace=wrap;startSize=0;container=1;collapsible=0;childLayout=tableLayout;" vertex="1" parent="1">
          <mxGeometry x="40" y="1000" width="270" height="40" as="geometry" />
        </mxCell>
        <mxCell id="YFKE30H4oAOHtCyzEYSX-109" value="" style="shape=tableRow;horizontal=0;startSize=0;swimlaneHead=0;swimlaneBody=0;top=0;left=0;bottom=0;right=0;collapsible=0;dropTarget=0;fillColor=none;points=[[0,0.5],[1,0.5]];portConstraint=eastwest;" vertex="1" parent="YFKE30H4oAOHtCyzEYSX-108">
          <mxGeometry width="270" height="40" as="geometry" />
        </mxCell>
        <mxCell id="YFKE30H4oAOHtCyzEYSX-110" value="&lt;u&gt;Ssn&lt;/u&gt;" style="shape=partialRectangle;html=1;whiteSpace=wrap;connectable=0;fillColor=none;top=0;left=0;bottom=0;right=0;overflow=hidden;" vertex="1" parent="YFKE30H4oAOHtCyzEYSX-109">
          <mxGeometry width="90" height="40" as="geometry">
            <mxRectangle width="90" height="40" as="alternateBounds" />
          </mxGeometry>
        </mxCell>
        <mxCell id="YFKE30H4oAOHtCyzEYSX-111" value="&lt;u&gt;Section&lt;/u&gt;" style="shape=partialRectangle;html=1;whiteSpace=wrap;connectable=0;fillColor=none;top=0;left=0;bottom=0;right=0;overflow=hidden;" vertex="1" parent="YFKE30H4oAOHtCyzEYSX-109">
          <mxGeometry x="90" width="90" height="40" as="geometry">
            <mxRectangle width="90" height="40" as="alternateBounds" />
          </mxGeometry>
        </mxCell>
        <mxCell id="YFKE30H4oAOHtCyzEYSX-112" value="Grade" style="shape=partialRectangle;html=1;whiteSpace=wrap;connectable=0;fillColor=none;top=0;left=0;bottom=0;right=0;overflow=hidden;" vertex="1" parent="YFKE30H4oAOHtCyzEYSX-109">
          <mxGeometry x="180" width="90" height="40" as="geometry">
            <mxRectangle width="90" height="40" as="alternateBounds" />
          </mxGeometry>
        </mxCell>
        <mxCell id="YFKE30H4oAOHtCyzEYSX-122" style="edgeStyle=orthogonalEdgeStyle;rounded=0;orthogonalLoop=1;jettySize=auto;html=1;exitX=0;exitY=0.5;exitDx=0;exitDy=0;entryX=0.278;entryY=1.07;entryDx=0;entryDy=0;entryPerimeter=0;" edge="1" parent="1" source="YFKE30H4oAOHtCyzEYSX-109" target="YFKE30H4oAOHtCyzEYSX-4">
          <mxGeometry relative="1" as="geometry">
            <Array as="points">
              <mxPoint x="20" y="1020" />
              <mxPoint x="20" y="610" />
              <mxPoint x="260" y="610" />
              <mxPoint x="260" y="573" />
            </Array>
          </mxGeometry>
        </mxCell>
        <mxCell id="YFKE30H4oAOHtCyzEYSX-123" style="edgeStyle=orthogonalEdgeStyle;rounded=0;orthogonalLoop=1;jettySize=auto;html=1;exitX=0.516;exitY=-0.07;exitDx=0;exitDy=0;exitPerimeter=0;entryX=0.573;entryY=0.993;entryDx=0;entryDy=0;entryPerimeter=0;" edge="1" parent="1" source="YFKE30H4oAOHtCyzEYSX-109" target="YFKE30H4oAOHtCyzEYSX-89">
          <mxGeometry relative="1" as="geometry">
            <mxPoint x="360" y="920" as="targetPoint" />
            <Array as="points">
              <mxPoint x="179" y="970" />
              <mxPoint x="350" y="970" />
              <mxPoint x="350" y="920" />
            </Array>
          </mxGeometry>
        </mxCell>
        <mxCell id="YFKE30H4oAOHtCyzEYSX-124" style="edgeStyle=orthogonalEdgeStyle;rounded=0;orthogonalLoop=1;jettySize=auto;html=1;entryX=0.743;entryY=1.036;entryDx=0;entryDy=0;entryPerimeter=0;exitX=0.513;exitY=1.088;exitDx=0;exitDy=0;exitPerimeter=0;" edge="1" parent="1" source="YFKE30H4oAOHtCyzEYSX-109" target="YFKE30H4oAOHtCyzEYSX-89">
          <mxGeometry relative="1" as="geometry">
            <Array as="points">
              <mxPoint x="179" y="1070" />
              <mxPoint x="441" y="1070" />
            </Array>
          </mxGeometry>
        </mxCell>
        <mxCell id="YFKE30H4oAOHtCyzEYSX-132" value="&lt;h1&gt;Residential&amp;nbsp;&lt;/h1&gt;" style="text;html=1;strokeColor=none;fillColor=none;spacing=5;spacingTop=-20;whiteSpace=wrap;overflow=hidden;rounded=0;" vertex="1" parent="1">
          <mxGeometry x="-130" y="440" width="140" height="30" as="geometry" />
        </mxCell>
        <mxCell id="YFKE30H4oAOHtCyzEYSX-133" value="" style="shape=table;html=1;whiteSpace=wrap;startSize=0;container=1;collapsible=0;childLayout=tableLayout;" vertex="1" parent="1">
          <mxGeometry x="40" y="440" width="360" height="40" as="geometry" />
        </mxCell>
        <mxCell id="YFKE30H4oAOHtCyzEYSX-134" value="" style="shape=tableRow;horizontal=0;startSize=0;swimlaneHead=0;swimlaneBody=0;top=0;left=0;bottom=0;right=0;collapsible=0;dropTarget=0;fillColor=none;points=[[0,0.5],[1,0.5]];portConstraint=eastwest;" vertex="1" parent="YFKE30H4oAOHtCyzEYSX-133">
          <mxGeometry width="360" height="40" as="geometry" />
        </mxCell>
        <mxCell id="YFKE30H4oAOHtCyzEYSX-136" value="&lt;u&gt;Sc_phone&lt;/u&gt;" style="shape=partialRectangle;html=1;whiteSpace=wrap;connectable=0;fillColor=none;top=0;left=0;bottom=0;right=0;overflow=hidden;" vertex="1" parent="YFKE30H4oAOHtCyzEYSX-134">
          <mxGeometry width="90" height="40" as="geometry">
            <mxRectangle width="90" height="40" as="alternateBounds" />
          </mxGeometry>
        </mxCell>
        <mxCell id="YFKE30H4oAOHtCyzEYSX-137" value="&lt;u&gt;Sp_phone&lt;/u&gt;" style="shape=partialRectangle;html=1;whiteSpace=wrap;connectable=0;fillColor=none;top=0;left=0;bottom=0;right=0;overflow=hidden;" vertex="1" parent="YFKE30H4oAOHtCyzEYSX-134">
          <mxGeometry x="90" width="90" height="40" as="geometry">
            <mxRectangle width="90" height="40" as="alternateBounds" />
          </mxGeometry>
        </mxCell>
        <mxCell id="YFKE30H4oAOHtCyzEYSX-138" value="Sc_address" style="shape=partialRectangle;html=1;whiteSpace=wrap;connectable=0;fillColor=none;top=0;left=0;bottom=0;right=0;overflow=hidden;" vertex="1" parent="YFKE30H4oAOHtCyzEYSX-134">
          <mxGeometry x="180" width="90" height="40" as="geometry">
            <mxRectangle width="90" height="40" as="alternateBounds" />
          </mxGeometry>
        </mxCell>
        <mxCell id="YFKE30H4oAOHtCyzEYSX-140" value="Sp_addr" style="shape=partialRectangle;html=1;whiteSpace=wrap;connectable=0;fillColor=none;top=0;left=0;bottom=0;right=0;overflow=hidden;" vertex="1" parent="YFKE30H4oAOHtCyzEYSX-134">
          <mxGeometry x="270" width="90" height="40" as="geometry">
            <mxRectangle width="90" height="40" as="alternateBounds" />
          </mxGeometry>
        </mxCell>
        <mxCell id="YFKE30H4oAOHtCyzEYSX-151" style="edgeStyle=orthogonalEdgeStyle;rounded=0;orthogonalLoop=1;jettySize=auto;html=1;entryX=0.094;entryY=1.014;entryDx=0;entryDy=0;entryPerimeter=0;" edge="1" parent="1" source="YFKE30H4oAOHtCyzEYSX-81" target="YFKE30H4oAOHtCyzEYSX-63">
          <mxGeometry relative="1" as="geometry" />
        </mxCell>
        <mxCell id="YFKE30H4oAOHtCyzEYSX-152" style="edgeStyle=orthogonalEdgeStyle;rounded=0;orthogonalLoop=1;jettySize=auto;html=1;entryX=0.278;entryY=1;entryDx=0;entryDy=0;entryPerimeter=0;exitX=0.901;exitY=0.014;exitDx=0;exitDy=0;exitPerimeter=0;" edge="1" parent="1" source="YFKE30H4oAOHtCyzEYSX-81" target="YFKE30H4oAOHtCyzEYSX-63">
          <mxGeometry relative="1" as="geometry">
            <Array as="points">
              <mxPoint x="445" y="750" />
              <mxPoint x="165" y="750" />
            </Array>
          </mxGeometry>
        </mxCell>
        <mxCell id="YFKE30H4oAOHtCyzEYSX-155" style="edgeStyle=orthogonalEdgeStyle;rounded=0;orthogonalLoop=1;jettySize=auto;html=1;entryX=0.145;entryY=1.078;entryDx=0;entryDy=0;entryPerimeter=0;" edge="1" parent="1" source="YFKE30H4oAOHtCyzEYSX-4" target="YFKE30H4oAOHtCyzEYSX-63">
          <mxGeometry relative="1" as="geometry">
            <Array as="points">
              <mxPoint x="990" y="550" />
              <mxPoint x="990" y="720" />
              <mxPoint x="105" y="720" />
            </Array>
          </mxGeometry>
        </mxCell>
        <mxCell id="YFKE30H4oAOHtCyzEYSX-156" style="edgeStyle=orthogonalEdgeStyle;rounded=0;orthogonalLoop=1;jettySize=auto;html=1;entryX=0.354;entryY=1.036;entryDx=0;entryDy=0;entryPerimeter=0;" edge="1" parent="1" source="YFKE30H4oAOHtCyzEYSX-4" target="YFKE30H4oAOHtCyzEYSX-63">
          <mxGeometry relative="1" as="geometry">
            <Array as="points">
              <mxPoint x="970" y="550" />
              <mxPoint x="970" y="700" />
              <mxPoint x="199" y="700" />
            </Array>
          </mxGeometry>
        </mxCell>
        <mxCell id="YFKE30H4oAOHtCyzEYSX-157" value="&lt;h1&gt;Living&lt;/h1&gt;" style="text;html=1;strokeColor=none;fillColor=none;spacing=5;spacingTop=-20;whiteSpace=wrap;overflow=hidden;rounded=0;" vertex="1" parent="1">
          <mxGeometry x="-80" y="370" width="140" height="30" as="geometry" />
        </mxCell>
        <mxCell id="YFKE30H4oAOHtCyzEYSX-158" value="" style="shape=table;html=1;whiteSpace=wrap;startSize=0;container=1;collapsible=0;childLayout=tableLayout;" vertex="1" parent="1">
          <mxGeometry x="40" y="365" width="270" height="40" as="geometry" />
        </mxCell>
        <mxCell id="YFKE30H4oAOHtCyzEYSX-159" value="" style="shape=tableRow;horizontal=0;startSize=0;swimlaneHead=0;swimlaneBody=0;top=0;left=0;bottom=0;right=0;collapsible=0;dropTarget=0;fillColor=none;points=[[0,0.5],[1,0.5]];portConstraint=eastwest;" vertex="1" parent="YFKE30H4oAOHtCyzEYSX-158">
          <mxGeometry width="270" height="40" as="geometry" />
        </mxCell>
        <mxCell id="YFKE30H4oAOHtCyzEYSX-160" value="&lt;u&gt;Sc_phone&lt;/u&gt;" style="shape=partialRectangle;html=1;whiteSpace=wrap;connectable=0;fillColor=none;top=0;left=0;bottom=0;right=0;overflow=hidden;" vertex="1" parent="YFKE30H4oAOHtCyzEYSX-159">
          <mxGeometry width="90" height="40" as="geometry">
            <mxRectangle width="90" height="40" as="alternateBounds" />
          </mxGeometry>
        </mxCell>
        <mxCell id="YFKE30H4oAOHtCyzEYSX-161" value="&lt;u&gt;Sp_phone&lt;/u&gt;" style="shape=partialRectangle;html=1;whiteSpace=wrap;connectable=0;fillColor=none;top=0;left=0;bottom=0;right=0;overflow=hidden;" vertex="1" parent="YFKE30H4oAOHtCyzEYSX-159">
          <mxGeometry x="90" width="90" height="40" as="geometry">
            <mxRectangle width="90" height="40" as="alternateBounds" />
          </mxGeometry>
        </mxCell>
        <mxCell id="YFKE30H4oAOHtCyzEYSX-162" value="&lt;u&gt;SSn&lt;/u&gt;" style="shape=partialRectangle;html=1;whiteSpace=wrap;connectable=0;fillColor=none;top=0;left=0;bottom=0;right=0;overflow=hidden;" vertex="1" parent="YFKE30H4oAOHtCyzEYSX-159">
          <mxGeometry x="180" width="90" height="40" as="geometry">
            <mxRectangle width="90" height="40" as="alternateBounds" />
          </mxGeometry>
        </mxCell>
      </root>
    </mxGraphModel>
  </diagram>
</mxfile>
